<svg version="1.2" xmlns="http://www.w3.org/2000/svg" viewBox="0 0 1600 1600" width="1600" height="1600"><style>.a{fill:#fff}</style><path fill-rule="evenodd" class="a" d="m803.5 64.5c7.8 0.2 17.5 1.1 22 2 4.4 0.9 11.6 2.8 16 4.2 4.4 1.4 11.1 4 15 5.7 3.9 1.8 129 71.8 278 155.5 149 83.8 274.8 154.8 279.5 157.9 4.7 3 12.8 9.7 18 14.8 5.2 5 12.1 12.7 15.2 17 3.1 4.4 7.9 12.2 10.5 17.4 2.7 5.2 6.1 13.1 7.5 17.5 1.5 4.4 3.5 11.8 4.5 16.5 1.7 8.1 1.8 22.4 1.8 327 0 297.5-0.1 319-1.7 326.5-1 4.4-2.9 11.6-4.3 16-1.5 4.4-4.4 11.6-6.5 16-2.1 4.4-6.2 11.6-9.1 16-2.9 4.4-10.2 13-16.3 19.1-6.8 6.8-14.4 13.2-19.6 16.6-4.7 3.1-131.3 74.5-281.5 158.9-150.1 84.3-276.6 154.8-281 156.6-4.4 1.7-12.3 4.3-17.5 5.7-5.2 1.4-15.1 3.1-22 3.8-9.8 0.9-15.1 0.9-24.5 0-6.6-0.7-16.3-2.4-21.5-3.8-5.2-1.4-13.1-4-17.5-5.7-4.4-1.8-130.9-72.3-281-156.6-150.1-84.4-276.6-155.7-281-158.6-4.4-2.8-12.2-9.2-17.4-14.1-5.1-4.9-12.2-12.7-15.7-17.4-3.5-4.7-8.6-13-11.4-18.5-2.7-5.5-6-13.4-7.4-17.5-1.3-4.1-3.3-11.3-4.3-16-1.7-8.1-1.8-22.8-1.8-327 0-304.6 0.1-318.9 1.8-327 1-4.7 3-12.1 4.5-16.5 1.4-4.4 4.8-12.3 7.5-17.5 2.6-5.2 7.4-13 10.5-17.4 3.1-4.3 10-12 15.2-17 5.2-5.1 13.3-11.8 18-14.8 4.7-3.1 128.4-73 275-155.4 146.6-82.3 270.1-151.7 274.5-154 4.4-2.4 11.6-5.7 16-7.3 4.4-1.6 11.6-3.8 16-5 4.4-1.1 11.1-2.5 15-3 3.9-0.6 13.3-0.8 21-0.6zm5.5 352.6c-5.8 0.5-15.7 1.6-22 2.5-6.3 0.8-16 2.4-21.5 3.5-5.5 1.1-15.4 3.3-22 5-6.6 1.6-18.6 5.2-26.8 7.9-8.1 2.8-20.7 7.5-27.9 10.6-7.3 3.1-18.7 8.5-25.3 11.9-6.6 3.4-16.3 8.8-21.5 12-5.2 3.2-14.2 8.9-20 12.9-5.8 3.9-16.1 11.6-23 17.1-6.9 5.5-19 16.3-26.9 24-7.9 7.7-18.2 18.5-23 24-4.8 5.5-12.1 14.5-16.2 20-4.2 5.5-11 15.2-15.2 21.5-4.1 6.3-10.8 17.3-14.8 24.5-3.9 7.1-9.7 18.4-12.7 25-3 6.6-7.4 16.9-9.7 23-2.4 6-5.6 15.3-7.3 20.5-1.7 5.2-4.7 16-6.7 24-2 8-4.7 20.8-6 28.5-1.3 7.7-2.9 19.4-3.7 26-0.8 7.1-1.3 23.1-1.3 39 0 15 0.6 31.9 1.3 38 0.7 6 2.2 16.6 3.3 23.5 1.1 6.9 3.6 19 5.5 27 1.9 8 5.1 19.7 7 26 2 6.3 6.1 17.8 9.1 25.5 3 7.7 9.1 21.2 13.5 30 4.4 8.8 10.8 20.5 14.1 26 3.3 5.5 8.3 13.4 11 17.5 2.8 4.1 8.3 11.8 12.2 17 4 5.2 11.5 14.4 16.7 20.5 5.3 6 15.1 16.4 21.9 23 6.8 6.7 16.7 15.7 21.9 20 5.2 4.4 14.2 11.4 20 15.7 5.8 4.2 16.1 11.2 23 15.5 6.9 4.3 20.1 11.7 29.5 16.5 9.3 4.7 24.4 11.5 33.5 15.1 9.1 3.6 21 7.9 26.5 9.6 5.5 1.7 16.5 4.6 24.5 6.5 8 1.9 20.1 4.4 27 5.5 6.9 1.1 17.4 2.6 23.5 3.3 6.3 0.7 22.7 1.3 38.5 1.3 15.3-0.1 32.4-0.6 38.5-1.3 6-0.7 16.6-2.2 23.5-3.3 6.9-1.1 19-3.6 27-5.5 8-1.9 19.7-5.1 26-7 6.3-2 17.8-6.1 25.5-9.1 7.7-3 20.3-8.6 28-12.4 7.7-3.7 19.2-9.9 25.5-13.7 6.3-3.7 15.1-9.2 19.5-12.2 4.4-2.9 12.3-8.6 17.5-12.5 5.2-4 14.5-11.5 20.5-16.7 6-5.2 16.8-15.6 24-23 7.2-7.4 16.8-18.1 21.3-23.9 7.8-9.7 8.3-10.5 6.5-11.7-1-0.7-6.1-3.8-11.3-6.7-5.2-3-35.8-20.7-68-39.4l-58.5-33.9c-14.7 14.2-23.3 21.7-28.5 25.7-5.2 4-13.5 9.8-18.5 12.9-5 3-13.7 7.9-19.5 10.7-5.8 2.9-15.5 7.1-21.5 9.3-6 2.3-15.3 5.3-20.5 6.7-5.2 1.3-15.1 3.5-22 4.7-10.4 1.8-16.2 2.2-34.5 2.2-16.5 0-24.8-0.4-33-1.7-6-1-15.3-2.9-20.5-4.2-5.2-1.3-13.8-3.8-19-5.6-5.2-1.7-13.5-4.9-18.5-7.1-5-2.2-13-6.2-18-9.1-5-2.8-12.4-7.3-16.5-10.1-4.1-2.8-11.8-8.5-17-12.7-5.2-4.2-13.3-11.6-18-16.5-4.7-4.9-11.4-12.5-15-16.9-3.5-4.4-9.3-12.5-12.9-18-3.6-5.5-8.8-14.5-11.6-20-2.8-5.5-7-14.7-9.2-20.5-2.3-5.8-5.8-16.6-7.7-24-1.9-7.4-4.3-18.4-5.3-24.5-1.3-8.1-1.7-16.7-1.7-32.5 0-15.8 0.4-24.4 1.7-32.5 1-6 3.2-16.4 4.8-23 1.7-6.6 4.6-16.3 6.6-21.5 1.9-5.2 6.1-14.9 9.3-21.5 3.3-6.6 9.1-16.9 13.1-23 3.9-6 9.7-14.1 12.7-18 3.1-3.8 10.7-12.2 17.1-18.6 6.4-6.3 14.7-14 18.6-17 3.9-3.1 11-8.2 16-11.6 5-3.3 12.8-8 17.5-10.6 4.7-2.5 13.2-6.6 19-9 5.8-2.4 15-5.8 20.5-7.5 5.5-1.7 12.9-3.7 16.5-4.6 3.6-0.8 11.5-2.2 17.5-3.2 8.1-1.4 16.6-1.8 32.5-1.8 16.2-0.1 24.2 0.4 32.5 1.8 6 1 16.9 3.3 24 5.1 7.1 1.8 17.3 5 22.5 7 5.2 2.1 14.9 6.4 21.5 9.7 6.6 3.3 15.8 8.5 20.5 11.5 4.7 3.1 12.3 8.5 17 12.2 4.7 3.6 12.8 10.7 18 15.7l9.5 9.2c23.3-13.5 54.3-31.5 84-48.7 29.7-17.2 54.4-31.6 54.8-31.9 0.5-0.4-2.9-5.4-7.4-11.2-4.6-5.8-16.4-18.6-26.4-28.6-9.9-9.9-23.6-22.5-30.5-28-6.9-5.5-19.2-14.5-27.5-20-8.2-5.5-20.8-13.2-28-17.2-7.1-3.9-20.1-10.3-28.7-14.2-8.7-3.8-23.1-9.4-32-12.4-9-3-21.7-6.9-28.3-8.6-6.6-1.7-18.1-4.2-25.5-5.5-7.4-1.4-19.4-3.2-26.5-4-7.2-0.9-24.1-1.8-38-2-13.7-0.2-29.7 0.1-35.5 0.6z"/></svg>