<svg version="1.2" xmlns="http://www.w3.org/2000/svg" viewBox="0 0 1600 1600" width="1600" height="1600"><style>.a{fill:#fff}</style><path fill-rule="evenodd" class="a" d="m1328.2 95.6c8.8 0.2 19.6 0.9 24.1 1.4 4.4 0.6 12 2.1 16.9 3.3 4.9 1.3 13.6 4 19.3 6.1 5.7 2.2 14.4 5.9 19.4 8.4 4.9 2.5 11.5 6.2 14.6 8.1 3.1 2 8.4 5.8 11.7 8.4 3.4 2.6 8.9 7.1 12.2 9.9 3.3 2.9 9.5 9.3 13.9 14.2 4.4 5 11.2 13.7 15 19.4 3.8 5.7 9 14.6 11.6 19.8 2.5 5.1 6.1 13.4 7.9 18.3 1.9 5 4.4 13.2 5.7 18.4 1.3 5.2 2.9 12.6 3.6 16.5 0.9 4.6 1.3 14.4 1.2 28.3 0 19.2-0.3 22.3-2.6 33.2-1.4 6.6-4.2 17.2-6.3 23.5-2.1 6.4-6.3 16.5-9.2 22.4-3 6-7.7 14.2-10.4 18.4-2.8 4.1-7.4 10.3-10.1 13.7-2.7 3.3-8.7 9.9-13.3 14.6-4.6 4.6-11.3 10.9-14.9 13.8-3.7 2.9-9.6 7.3-13.2 9.7-3.6 2.5-13 7.6-20.7 11.4-7.8 3.8-17.6 8-21.7 9.4-4.2 1.3-12.2 3.4-17.9 4.7-5.7 1.2-15.1 2.7-20.8 3.3-6.4 0.7-16.2 0.9-25.9 0.6-11.1-0.4-18.8-1.3-27.3-3-6.5-1.3-16.2-3.9-21.7-5.8-5.4-1.8-14.5-5.5-20.2-8.2-5.7-2.7-13.8-7.1-17.9-9.6-4.2-2.6-11.2-7.4-15.6-10.8-4.4-3.3-12.1-10.1-17-15-5-5-12.3-13.5-16.4-18.9-4-5.4-9.3-13.3-11.8-17.4-2.4-4.2-6.1-11.4-8.3-16.1-2.1-4.6-5.5-13.7-7.6-20.2-2.1-6.5-4.7-16.7-5.9-22.6-1.8-9.4-2.1-13.9-2.1-32.5 0-20.1 0.2-22.6 2.6-34 1.4-6.7 4.1-16.7 5.9-22.1 1.8-5.5 5.7-15 8.7-21.2 2.9-6.2 7.4-14.5 9.9-18.4 2.5-3.9 7.4-10.7 10.8-15.1 3.4-4.4 10.3-11.9 15.2-16.8 4.9-4.8 12.8-11.7 17.4-15.2 4.7-3.5 12-8.6 16.3-11.2 4.3-2.7 11.9-6.7 16.9-9 5.1-2.2 13-5.4 17.7-6.9 4.7-1.6 12.1-3.8 16.5-4.9 4.4-1.1 12.5-2.6 17.9-3.3 6.6-0.9 15.3-1.2 25.9-1zm-621.5 179.7c6-0.1 20.2 0.3 31.6 0.8 11.4 0.5 28.4 1.8 37.7 2.9 9.3 1 22.5 2.7 29.2 3.7 6.7 1.1 18.6 3.2 26.4 4.8 7.8 1.6 20.1 4.3 27.3 6 7.3 1.8 19.6 5.1 27.3 7.5 7.8 2.4 20.1 6.4 27.4 8.9 7.2 2.5 20 7.2 28.2 10.5 8.3 3.3 27.8 12.4 43.4 20.2 15.5 7.9 33.8 17.6 40.5 21.6 6.8 4.1 19.5 12.3 28.3 18.2 8.8 6 22.4 15.8 30.1 21.8 7.8 6 19.9 15.8 26.9 21.7 7 6 19.9 17.9 28.6 26.5 8.8 8.5 21.5 21.7 28.3 29.2 6.8 7.5 15 16.9 18.1 20.8 3.1 3.8 8.7 10.8 12.3 15.5 3.6 4.7 10.4 14 15.1 20.7 4.7 6.8 10.9 15.9 13.7 20.3 2.9 4.4 7.7 12 10.7 17 2.9 4.9 9.3 16.1 14 24.9 4.8 8.8 11.9 22.8 15.8 31.1 4 8.3 10.4 23.2 14.3 33 3.9 9.9 9.7 25.7 12.8 35.1 3.2 9.5 7.6 24.3 9.8 33 2.3 8.7 5.3 20.7 6.6 26.6 1.4 6 3.3 15.5 4.3 21.2 1.1 5.7 2.6 14.9 3.4 20.3 0.8 5.4 2.3 17.3 3.3 26.4 1 9.1 2.3 27.3 3 40.5 0.8 18.4 0.8 29.8 0 48.5-0.6 13.5-1.8 30.7-2.5 38.2-0.8 7.5-2.3 19.6-3.4 26.9-1 7.2-3.2 19.9-4.7 28.2-1.6 8.3-5 23.6-7.6 34-2.7 10.3-6.7 25-9 32.5-2.4 7.5-6.9 20.8-10.2 29.7-3.3 8.8-8.8 22.6-12.3 30.6-3.4 8-9.9 21.8-14.3 30.6-4.4 8.8-11.6 22.3-15.9 29.9-4.4 7.7-11.6 19.8-16.2 26.9-4.5 7.1-12.6 19.1-18 26.6-5.4 7.5-13 17.7-17 22.6-3.9 5-12.1 14.9-18.3 22.2-6.2 7.2-20.4 22.3-31.6 33.5-11.2 11.2-24.6 23.9-29.8 28.3-5.2 4.4-10.7 9-12.3 10.3-1.6 1.3-6.9 5.5-11.8 9.4-4.9 4-13.3 10.4-18.8 14.3-5.4 3.9-12.6 9-16 11.3-3.4 2.4-12.7 8.3-20.7 13.2-8.1 5-19.1 11.5-24.5 14.7-5.5 3.1-17.1 9.2-25.9 13.6-8.9 4.4-20.5 10-26 12.3-5.4 2.4-16 6.7-23.5 9.7-7.5 2.9-22.4 8.2-33 11.8-10.6 3.5-25.9 8.1-33.9 10.1-8.1 2.1-18.7 4.7-23.6 5.7-4.9 1.1-14.7 3-21.7 4.4-7 1.3-18.6 3.2-25.9 4.3-7.2 1-18.9 2.5-25.9 3.3-7.9 1-25.6 1.7-46.6 2-21.4 0.3-40.9 0.1-52.8-0.6-10.4-0.6-25.9-1.9-34.4-2.9-8.6-1.1-21.9-3-29.7-4.3-7.8-1.3-18.2-3.2-23.1-4.2-4.9-1.1-17.4-4.1-27.8-6.7-10.4-2.6-24.1-6.5-30.6-8.6-6.5-2-19-6.4-27.8-9.7-8.8-3.2-20.5-7.8-25.9-10.1-5.5-2.3-16.5-7.3-24.5-11.1-8.1-3.8-21-10.3-28.8-14.4-7.8-4.1-18.4-10.1-23.5-13.2-5.2-3.1-16-9.9-24.1-15.2-8-5.4-19.9-13.6-26.4-18.4-6.4-4.8-16-12.2-21.2-16.3-5.1-4.2-13-10.8-17.4-14.7-4.4-3.9-14.5-13.2-22.4-20.8-8-7.5-19.7-19.4-26.1-26.4-6.4-7-16.4-18.5-22.2-25.5-5.8-7-15.7-19.7-21.9-28.2-6.3-8.6-15.7-22.2-20.8-30.2-5.2-8-12.2-19.3-15.5-25-3.4-5.7-10.9-19.9-16.7-31.5-5.8-11.7-13.4-27.6-16.7-35.4-3.4-7.7-8.7-21.1-11.8-29.7-3.1-8.5-8-23.4-10.9-32.9-2.9-9.6-6.7-23.4-8.5-30.7-1.8-7.2-4.6-19.7-6.2-27.8-1.6-8-3.8-20.3-4.9-27.3-1-7-2.8-20.6-3.8-30.2-1.4-12.6-2-26.7-2.4-51.3-0.3-21.3-0.1-40.4 0.6-51.4 0.6-9.6 2.1-25.9 3.5-36.3 1.3-10.3 3.8-26.6 5.5-36.2 1.8-9.6 5.6-27 8.5-38.7 2.9-11.6 8.4-30.5 12.2-41.9 3.8-11.4 9.7-27.5 13-35.8 3.4-8.3 8.8-20.8 12-27.8 3.2-7 9-18.9 13-26.4 3.9-7.5 9.9-18.6 13.4-24.5 3.4-6 9.6-16.2 13.7-22.6 4.1-6.5 12.3-18.6 18.2-26.9 5.9-8.3 13.9-19.1 17.9-24 3.9-4.9 12-14.7 18-21.6 6-7 19.8-21.7 30.7-32.6 10.9-10.9 24.2-23.7 29.7-28.4 5.4-4.6 13-11 16.9-14.1 3.9-3.2 12.2-9.6 18.4-14.2 6.2-4.7 17.9-13 25.9-18.5 8.1-5.4 21.2-13.8 29.2-18.6 8.1-4.8 23.5-13.3 34.4-18.9 10.9-5.6 24.9-12.4 31.1-15.1 6.2-2.7 18.1-7.5 26.4-10.7 8.3-3.3 21.7-8.1 29.7-10.7 8-2.7 22.2-6.9 31.6-9.5 9.3-2.6 25.2-6.4 35.3-8.5 10.1-2.1 22.8-4.5 28.3-5.3 5.4-0.8 12.2-1.8 15.1-2.3 2.8-0.5 12.6-1.6 21.6-2.4 9.1-0.9 23.3-1.9 31.6-2.3 8.3-0.4 20-0.7 25.9-0.8zm244.1 180.5c-2.3 0.2-9.3 1.2-15.6 2.2-6.2 1-16.3 3.4-22.6 5.3-6.2 1.8-17 6.1-24 9.4-7 3.4-17 8.9-22.1 12.3-5.2 3.4-12.6 8.8-16.5 12.1-3.9 3.2-10.7 9.6-15.1 14.2-4.4 4.6-10 10.9-12.4 14-2.3 3.1-6.7 9.5-9.7 14.2-3 4.6-7.5 12.7-10 17.9-2.5 5.2-6.3 14.5-8.3 20.7-2.1 6.2-5 16.8-6.4 23.6-2.4 11.3-2.6 13.8-2.6 34.4 0 19.3 0.3 23.4 2.1 32 1.2 5.4 3 12.9 4.1 16.5 1 3.6 3.2 10.2 4.7 14.6 1.6 4.4 5.3 12.7 8.2 18.4 2.9 5.7 7.5 13.7 10.4 17.9 2.8 4.1 7.5 10.5 10.5 14.1 3 3.6 9.4 10.5 14.2 15.3 4.9 4.8 11.8 11 15.4 13.8 3.7 2.8 10.2 7.3 14.7 10.1 4.4 2.7 12.6 7.2 18.3 10 5.7 2.7 15.1 6.5 20.8 8.3 5.7 1.9 15.6 4.5 22.1 5.9 10.8 2.3 13.6 2.5 33.9 2.5 20.6 0 23.1-0.2 34.9-2.7 7-1.4 15.5-3.4 18.8-4.5 3.4-1 10.6-3.8 16.1-6.1 5.4-2.3 13-5.9 16.9-8 3.9-2.1 11.7-7.1 17.4-11 5.7-4 14.8-11.5 20.3-16.7 5.4-5.3 12.3-12.5 15.2-16 3-3.6 7.8-10.1 10.7-14.5 2.9-4.5 7.6-12.5 10.4-18 2.8-5.4 6.4-13.2 8-17.4 1.7-4.1 4-11.1 5.3-15.5 1.3-4.4 3.2-13.1 4.2-19.4 1-6.2 2.1-16.8 2.4-23.5 0.4-8.6 0.1-16.2-0.9-25.5-0.9-7.2-2.6-17.4-3.9-22.6-1.2-5.2-3.6-13.2-5.2-17.9-1.6-4.6-5.4-13.5-8.5-19.8-3-6.2-7.9-14.9-10.8-19.3-3-4.4-8.7-12-12.6-16.9-4-4.9-10.4-11.8-14.3-15.4-3.9-3.6-10.9-9.4-15.5-12.9-4.7-3.5-11.5-8.2-15.1-10.4-3.6-2.3-11.3-6.3-17-9-5.7-2.7-13.1-5.9-16.5-7-3.3-1.1-11-3.3-16.9-4.8-6-1.6-16.4-3.4-23.1-4.2-6.7-0.7-16.3-1.3-21.2-1.2-4.9 0.1-10.9 0.3-13.2 0.5zm-660.6 742.9h253.5v-48.1h-198.9v-349.6h-54.6zm704.4-296.3c-1.5 0.3-6.2 1.1-10.3 1.8-4.2 0.7-12.3 2.9-18 4.7-5.7 1.9-14.8 5.8-20.2 8.6-5.5 2.9-12.1 6.9-14.9 8.9-2.7 2.1-6.9 6.1-9.4 9.1-2.5 3-6.1 8.2-8 11.6-1.9 3.3-4.7 9.9-6.2 14.6-1.6 4.6-3.5 12.9-4.3 18.3-0.8 5.5-1.5 11.7-1.5 13.9v4.1l45.5-0.5c2.5-12.4 4.1-18.2 5.1-20.8 1-2.5 2.9-6.6 4.2-8.9 1.3-2.3 4.5-6.3 7-8.8 2.9-2.9 7.5-6 12.2-8.3 4.1-2 10.7-4.4 14.6-5.3 5.3-1.2 11.2-1.6 24-1.6 12.9 0 18.9 0.4 25 1.7 4.4 0.9 11.4 3 15.5 4.7 5.9 2.3 8.9 4.1 13.5 8.6 3.5 3.3 6.9 7.6 8.2 10.4 1.2 2.6 2.7 7.5 3.4 10.8 0.7 3.8 0.9 9.4 0.6 14.7-0.3 4.6-1.1 9.9-1.7 11.7-0.7 1.8-2.3 4.8-3.6 6.5-1.4 1.8-4.2 4.2-6.2 5.4-2.1 1.2-6.8 2.8-10.4 3.6-3.6 0.8-17.2 2.7-30.2 4.3-12.9 1.6-32.4 4.2-43.3 5.7-10.9 1.5-22.3 3.4-25.4 4.2-3.2 0.8-9.3 2.8-13.7 4.4-4.4 1.5-11.4 4.6-15.6 6.8-4.1 2.1-10.5 6.3-14.1 9.2-3.6 2.9-8.4 7.3-10.7 9.9-2.2 2.5-5.6 7.1-7.4 10.2-1.8 3.2-4.5 8.7-5.9 12.3-1.5 3.6-3.4 11-4.3 16.5-1.3 7.5-1.5 12.7-1.1 21.7 0.4 8.6 1.2 14 3 20 1.3 4.5 3.6 10.7 5.1 13.6 1.5 3 5.4 9.1 8.7 13.4 3.3 4.4 8.8 10.3 12.1 13 3.4 2.8 8.9 6.7 12.3 8.6 3.3 2 8.2 4.5 10.8 5.6 2.6 1.1 8.3 2.9 12.7 4.1 7.2 2 10 2.2 27.4 2.2 16.6-0.1 20.5-0.4 28.2-2.2 5-1.2 12.2-3.2 16.1-4.5 3.8-1.3 10.6-4.1 15-6.3 4.4-2.1 11.8-6.3 16.3-9.3 4.5-3 12.6-9.6 17.8-14.7l9.6-9.1c3.2 13.1 5.3 19.3 6.8 22.1 1.4 2.9 4.6 7.1 6.9 9.5 2.4 2.3 7.3 5.7 10.9 7.5l6.6 3.3c28.9 0 33.7-0.4 39.9-1.9l7.8-1.9-0.1-35.8c-14.9 0.6-20.9 0.4-22.8 0.1-2.6-0.4-4.2-1.5-6.1-4l-2.6-3.5c-1.2-188.8-1.2-189.6-3.3-196.6-1.1-3.9-3.3-9.7-4.7-12.8-1.5-3.1-4.8-8.1-7.3-11.2-2.5-3.1-7.1-7.7-10.2-10.2-3.1-2.6-10.3-6.9-16-9.7-5.7-2.8-15-6.4-20.7-8-5.7-1.6-14-3.5-18.4-4.4-5.4-1-15-1.5-29.7-1.7-11.9-0.2-22.9-0.1-24.5 0.1zm-403.1 228c5 19.3 7.7 26.7 10.6 32.5 2.5 4.9 6.8 11.7 9.6 15 2.8 3.4 7.9 8.2 11.2 10.8 3.3 2.5 8.4 5.7 11.3 7.1 2.8 1.5 7.9 3.5 11.3 4.6 3.3 1.1 8.2 2.5 10.8 3 2.6 0.6 9.4 1.6 15.1 2.3 7.6 1 13.2 1.1 21.2 0.5 5.9-0.4 13.2-1.3 16-1.8 2.9-0.6 7.9-1.9 11.3-3 3.4-1.1 9.7-3.9 14.1-6.1 4.5-2.2 9.9-5.3 12.1-6.9 2.2-1.6 7-5.8 10.7-9.3 3.7-3.5 9.1-9.5 12-13.4l5.3-7.1 0.5 40.1h46.1v-290.3c-37.2 0-48.2 0.3-48.4 0.7-0.3 0.4-0.5 35.7-0.6 78.5-0.1 42.7-0.6 82.6-1 88.6-0.5 5.9-1.9 15.7-3.1 21.6-1.2 6-3.5 14.3-5.2 18.4-1.7 4.2-4.4 10.1-6.2 13.2-1.7 3.1-5 8-7.3 10.9-2.3 2.8-6.2 6.7-8.8 8.6-2.5 1.9-7.6 4.9-11.2 6.7-3.7 1.8-9.2 4-12.3 4.8-3.1 0.8-10.1 1.7-15.5 2.1-6.3 0.4-12.9 0.2-17.9-0.5-5.5-0.8-10.1-2.2-14.6-4.4-3.7-1.7-8.1-4.4-9.9-5.9-1.9-1.4-5.2-5.4-7.4-8.7-2.2-3.3-5.2-9.4-6.5-13.6-2.2-6.9-2.5-9.5-3.2-31.1-0.4-12.9-0.7-61-0.8-106.7v-83.2h-50.2zm486.8-77.7c0.4 0 0.7 11.5 0.7 25.7 0 23.1-0.2 26.3-1.9 32.7-1.1 3.9-3.5 10-5.4 13.7-1.9 3.6-6 9.3-9.2 12.6-3.1 3.3-8.2 7.8-11.3 10-3.1 2.2-8.7 5.5-12.4 7.4-3.8 1.9-10 4.5-13.7 5.7-3.8 1.3-10 3-13.9 3.9-4.6 1-11.5 1.5-19.8 1.5-8.7 0-14.5-0.5-18.4-1.5-3.1-0.9-8.5-3.1-12.1-5.1-3.5-1.9-8.5-5.6-11-8.1-2.6-2.6-5.7-6.7-7-9-1.3-2.3-3-7.4-3.8-11.3-1.1-5-1.4-9-0.9-13.7 0.4-3.6 1.3-8.9 2.2-11.7 0.9-2.9 3.1-7.5 4.8-10.4 1.8-2.8 5.4-6.8 8-8.8 2.6-2 7.2-4.9 10.2-6.4 2.9-1.5 9.1-3.8 13.6-5.1 4.6-1.3 10.8-2.8 13.9-3.3 3.1-0.4 12.3-1.7 20.3-2.8 8-1.1 19.9-2.9 26.4-3.9 6.5-1 15.6-2.9 20.2-4.3 4.7-1.3 11.1-3.6 14.2-5.1 3.1-1.4 5.9-2.6 6.3-2.7z"/></svg>